<?xml version="1.0" encoding="UTF-8"?>
<!DOCTYPE svg PUBLIC "-//W3C//DTD SVG 1.1//EN" "http://www.w3.org/Graphics/SVG/1.1/DTD/svg11.dtd">
<!-- Creator: CorelDRAW 2020 (64-Bit) -->
<svg xmlns="http://www.w3.org/2000/svg" xml:space="preserve" width="141.32mm" height="70.733mm" version="1.1" style="shape-rendering:geometricPrecision; text-rendering:geometricPrecision; image-rendering:optimizeQuality; fill-rule:evenodd; clip-rule:evenodd"
viewBox="0 0 14132 7073.3"
 xmlns:xlink="http://www.w3.org/1999/xlink"
 xmlns:xodm="http://www.corel.com/coreldraw/odm/2003">
 <defs>
  <style type="text/css">
   <![CDATA[
    .fil1 {fill:#990070}
    .fil2 {fill:#FEFEFE;fill-rule:nonzero}
    .fil0 {fill:#990070;fill-rule:nonzero}
   ]]>
  </style>
 </defs>
 <g id="Capa_x0020_1">
  <metadata id="CorelCorpID_0Corel-Layer"/>
  <path class="fil0" d="M8444.64 3355.12c30.19,0 57.27,-5.03 81.07,-15.09 23.8,-10.06 43.73,-24.19 59.98,-42.38 16.26,-18.18 28.83,-40.24 37.54,-66.17 8.71,-25.93 12.96,-54.95 12.96,-87.07l0 -502.68 156.15 0 0 502.68c0,49.92 -7.94,95.97 -24,138.35 -16.05,42.37 -39.08,78.94 -69.07,109.7 -29.99,30.77 -66.56,54.76 -109.51,71.98 -42.96,17.22 -91.33,25.93 -145.12,25.93 -54.17,0 -102.74,-8.71 -145.69,-25.93 -42.96,-17.22 -79.33,-41.21 -109.32,-71.98 -29.99,-30.76 -53.02,-67.33 -69.08,-109.7 -16.06,-42.38 -24.18,-88.43 -24.18,-138.35l0 -502.68 156.14 0 0 502.1c0,32.12 4.45,61.14 13.16,87.07 8.7,25.93 21.28,47.99 37.73,66.37 16.44,18.38 36.57,32.7 60.36,42.76 23.8,10.06 50.7,15.09 80.88,15.09zm635.6 -396.45c12,-12 24.77,-23.22 38.12,-33.48 13.35,-10.25 27.47,-18.96 42.37,-26.12 14.9,-7.16 30.77,-12.77 47.79,-16.83 17.03,-4.06 35.61,-6 55.73,-6 32.5,0 61.33,5.42 86.49,16.45 25.15,11.03 46.24,26.5 63.07,46.43 16.84,19.93 29.61,43.73 38.31,71.4 8.71,27.67 12.97,58.24 12.97,91.52l0 379.04 -143.38 0 0 -379.04c0,-36.38 -8.32,-64.62 -24.96,-84.55 -16.64,-19.93 -41.98,-29.8 -76.04,-29.8 -24.76,0 -47.98,5.61 -69.65,16.83 -21.67,11.22 -42.18,26.51 -61.53,45.86l0 430.7 -143.37 0 0 -595.55 87.65 0c18.57,0 30.76,8.7 36.56,26.12l9.87 47.02zm669.27 -73.14l0 595.55 -143.95 0 0 -595.55 143.95 0zm19.74 -173.56c0,12.38 -2.52,23.99 -7.55,34.83 -5.03,10.83 -11.61,20.31 -19.93,28.44 -8.32,8.13 -18.18,14.51 -29.41,19.35 -11.22,4.84 -23.21,7.35 -35.98,7.35 -12.39,0 -24,-2.51 -35.03,-7.35 -11.02,-4.84 -20.7,-11.22 -28.82,-19.35 -8.13,-8.13 -14.52,-17.61 -19.35,-28.44 -4.84,-10.84 -7.36,-22.45 -7.36,-34.83 0,-12.77 2.52,-24.77 7.36,-35.99 4.83,-11.22 11.22,-20.89 19.35,-29.02 8.12,-8.13 17.8,-14.71 28.82,-19.54 11.03,-4.84 22.64,-7.16 35.03,-7.16 12.77,0 24.76,2.32 35.98,7.16 11.23,4.83 21.09,11.41 29.41,19.54 8.32,8.13 14.9,17.8 19.93,29.02 5.03,11.22 7.55,23.22 7.55,35.99zm663.46 173.56l-236.25 595.55 -130.02 0 -236.25 -595.55 118.42 0c10.83,0 19.93,2.51 27.09,7.54 7.16,5.03 11.8,11.42 14.12,19.16l114.93 318.09c6.19,18.58 11.61,36.76 16.25,54.56 4.65,17.81 8.71,35.61 12.19,53.41 3.87,-17.8 8.13,-35.6 12.77,-53.41 4.65,-17.8 10.26,-35.98 16.84,-54.56l117.25 -318.09c2.71,-7.74 7.55,-14.13 14.51,-19.16 6.97,-5.03 15.29,-7.54 24.96,-7.54l113.19 0zm459.73 229.28c0,-18.57 -2.52,-36.18 -7.74,-52.63 -5.22,-16.45 -13.16,-30.76 -23.6,-43.15 -10.45,-12.38 -23.61,-22.25 -39.67,-29.41 -16.06,-7.16 -34.83,-10.64 -56.11,-10.64 -41.41,0 -73.91,11.8 -97.71,35.41 -23.8,23.61 -39.09,57.08 -45.66,100.42l270.49 0zm-273.4 86.49c2.33,30.57 7.74,56.88 16.26,79.13 8.51,22.26 19.73,40.64 33.66,55.15 13.93,14.51 30.57,25.34 49.73,32.5 19.15,7.16 40.24,10.84 63.46,10.84 23.22,0 43.34,-2.71 60.18,-8.13 16.83,-5.42 31.54,-11.41 44.11,-17.99 12.58,-6.58 23.61,-12.58 33.09,-18 9.48,-5.41 18.57,-8.12 27.47,-8.12 12,0 20.9,4.45 26.7,13.35l41.22 52.24c-15.87,18.57 -33.67,34.05 -53.41,46.63 -19.73,12.58 -40.24,22.64 -61.72,30.18 -21.47,7.55 -43.34,12.97 -65.59,16.06 -22.25,3.1 -43.92,4.65 -64.82,4.65 -41.4,0 -79.91,-6.97 -115.51,-20.71 -35.6,-13.73 -66.56,-34.05 -92.87,-60.94 -26.32,-26.9 -47.02,-60.18 -62.11,-99.84 -15.09,-39.67 -22.64,-85.52 -22.64,-137.77 0,-40.63 6.58,-78.94 19.74,-114.73 13.15,-35.8 32.11,-66.95 56.69,-93.46 24.57,-26.51 54.56,-47.4 89.97,-62.88 35.41,-15.48 75.27,-23.22 119.77,-23.22 37.53,0 72.17,6 103.9,17.99 31.73,12 59.01,29.41 81.84,52.44 22.84,23.02 40.83,51.27 53.79,84.75 12.97,33.47 19.35,71.78 19.35,114.73 0,21.68 -2.32,36.19 -6.96,43.73 -4.65,7.55 -13.55,11.42 -26.7,11.42l-368.6 0zm644.89 -212.45c18.58,-35.6 40.64,-63.66 66.18,-83.97 25.54,-20.32 55.72,-30.38 90.55,-30.38 27.47,0 49.53,6 66.17,17.99l-9.29 107.39c-1.93,6.96 -4.64,11.8 -8.32,14.7 -3.67,2.91 -8.7,4.45 -14.9,4.45 -5.8,0 -14.31,-0.96 -25.73,-2.9 -11.42,-1.93 -22.64,-2.9 -33.47,-2.9 -15.87,0 -29.99,2.32 -42.38,6.96 -12.38,4.65 -23.41,11.23 -33.28,19.93 -9.86,8.71 -18.57,19.35 -26.12,31.74 -7.54,12.38 -14.7,26.5 -21.28,42.37l0 366.85 -143.37 0 0 -595.55 84.16 0c14.71,0 24.96,2.51 30.77,7.74 5.8,5.22 9.67,14.7 11.61,28.25l8.7 67.33zm661.14 12.77c-3.87,6.19 -7.93,10.45 -12.19,12.96 -4.25,2.52 -9.67,3.87 -16.25,3.87 -6.96,0 -14.32,-1.93 -22.25,-5.8 -7.93,-3.87 -17.22,-8.32 -27.67,-13.16 -10.45,-4.84 -22.25,-9.09 -35.6,-12.96 -13.35,-3.87 -29.22,-5.81 -47.4,-5.81 -28.25,0 -50.31,6 -66.37,18 -16.06,11.99 -24.19,27.67 -24.19,47.01 0,12.78 4.26,23.42 12.58,32.12 8.32,8.71 19.35,16.45 33.09,23.03 13.73,6.58 29.21,12.38 46.63,17.61 17.41,5.22 35.21,11.02 53.21,17.22 17.99,6.19 35.6,13.15 53.01,21.09 17.42,7.93 33.09,17.99 46.83,30.18 13.73,12.19 24.76,26.89 33.08,43.92 8.32,17.03 12.38,37.54 12.38,61.53 0,28.64 -5.03,54.95 -15.28,79.14 -10.26,24.18 -25.54,45.08 -45.66,62.69 -20.13,17.6 -44.89,31.34 -74.5,41.21 -29.6,9.87 -63.85,14.9 -102.54,14.9 -20.51,0 -40.44,-1.94 -59.98,-5.61 -19.55,-3.68 -38.31,-8.71 -56.31,-15.29 -17.99,-6.58 -34.63,-14.32 -49.92,-23.22 -15.28,-8.9 -28.83,-18.57 -40.44,-29.02l33.09 -54.56c4.26,-6.58 9.29,-11.61 15.09,-15.1 5.81,-3.48 13.16,-5.22 22.06,-5.22 8.9,0 17.41,2.52 25.34,7.55 7.94,5.03 17.03,10.44 27.48,16.25 10.45,5.8 22.83,11.22 36.96,16.25 14.12,5.03 31.92,7.55 53.59,7.55 17.03,0 31.73,-2.13 43.92,-6.19 12.19,-4.07 22.25,-9.29 30.19,-15.87 7.93,-6.58 13.73,-14.32 17.41,-23.02 3.68,-8.71 5.42,-17.61 5.42,-26.9 0,-13.93 -4.06,-25.35 -12.38,-34.25 -8.32,-8.9 -19.35,-16.64 -33.09,-23.21 -13.74,-6.58 -29.41,-12.58 -47.02,-17.81 -17.61,-5.22 -35.6,-10.83 -53.98,-17.02 -18.38,-6.19 -36.38,-13.55 -53.98,-21.87 -17.61,-8.32 -33.28,-18.76 -47.02,-31.53 -13.74,-12.77 -24.77,-28.45 -33.09,-47.02 -8.32,-18.58 -12.57,-41.02 -12.57,-67.34 0,-24.37 4.83,-47.59 14.51,-69.65 9.67,-22.06 23.99,-41.41 42.76,-57.85 18.77,-16.45 42.18,-29.61 70.23,-39.47 28.06,-9.87 60.37,-14.71 97.13,-14.71 41.02,0 78.37,6.77 112.03,20.32 33.67,13.54 61.73,31.34 84.17,53.4l-32.51 51.66zm295.45 -116.09l0 595.55 -143.95 0 0 -595.55 143.95 0zm19.74 -173.56c0,12.38 -2.52,23.99 -7.55,34.83 -5.03,10.83 -11.61,20.31 -19.93,28.44 -8.32,8.13 -18.18,14.51 -29.41,19.35 -11.22,4.84 -23.21,7.35 -35.98,7.35 -12.39,0 -24,-2.51 -35.03,-7.35 -11.02,-4.84 -20.7,-11.22 -28.82,-19.35 -8.13,-8.13 -14.52,-17.61 -19.35,-28.44 -4.84,-10.84 -7.36,-22.45 -7.36,-34.83 0,-12.77 2.52,-24.77 7.36,-35.99 4.83,-11.22 11.22,-20.89 19.35,-29.02 8.12,-8.13 17.8,-14.71 28.82,-19.54 11.03,-4.84 22.64,-7.16 35.03,-7.16 12.77,0 24.76,2.32 35.98,7.16 11.23,4.83 21.09,11.41 29.41,19.54 8.32,8.13 14.9,17.8 19.93,29.02 5.03,11.22 7.55,23.22 7.55,35.99zm500.35 325.64c-16.25,-19.74 -33.86,-33.67 -53.01,-41.79 -19.16,-8.13 -39.86,-12.19 -61.92,-12.19 -21.67,0 -41.21,4.06 -58.63,12.19 -17.41,8.12 -32.31,20.31 -44.69,36.76 -12.38,16.44 -21.86,37.34 -28.44,62.69 -6.58,25.34 -9.87,55.33 -9.87,89.78 0,34.82 2.9,64.23 8.51,88.42 5.61,24.18 13.55,43.92 23.99,59.21 10.45,15.28 23.22,26.31 38.32,33.08 15.09,6.77 31.92,10.26 50.5,10.26 29.79,0 55.14,-6.19 76.04,-18.58 20.89,-12.38 40.63,-29.99 59.2,-52.82l0 -267.01zm143.38 -419.09l0 862.56 -87.65 0c-18.97,0 -30.96,-8.71 -35.99,-26.12l-12.19 -57.47c-23.99,27.48 -51.47,49.73 -82.62,66.76 -31.15,17.02 -67.53,25.54 -108.93,25.54 -32.51,0 -62.31,-6.78 -89.39,-20.32 -27.09,-13.54 -50.31,-33.28 -69.85,-59.01 -19.55,-25.74 -34.64,-57.47 -45.28,-95.39 -10.64,-37.92 -16.06,-81.27 -16.06,-130.02 0,-44.12 6,-85.14 18,-123.06 11.99,-37.93 29.21,-70.82 51.66,-98.68 22.44,-27.86 49.34,-49.73 80.68,-65.4 31.35,-15.67 66.56,-23.41 105.64,-23.41 33.28,0 61.73,5.22 85.33,15.67 23.61,10.45 44.7,24.57 63.27,42.38l0 -314.03 143.38 0zm456.24 608.32c-41.41,1.93 -76.24,5.42 -104.49,10.64 -28.25,5.22 -50.88,12 -67.91,20.12 -17.03,8.13 -29.22,17.61 -36.57,28.45 -7.35,10.83 -11.03,22.63 -11.03,35.4 0,25.16 7.55,43.15 22.45,53.99 14.89,10.83 34.24,16.25 58.24,16.25 29.41,0 54.95,-5.42 76.42,-16.06 21.48,-10.64 42.38,-26.7 62.89,-48.37l0 -100.42zm-328.54 -258.31c68.49,-62.69 150.91,-94.03 247.27,-94.03 34.83,0 65.98,5.61 93.46,17.03 27.47,11.41 50.69,27.28 69.65,47.59 18.96,20.32 33.47,44.7 43.34,72.95 9.87,28.25 14.71,59.21 14.71,92.87l0 376.14 -65.02 0c-13.54,0 -23.99,-2.13 -31.34,-6.19 -7.35,-4.06 -13.16,-12.19 -17.41,-24.57l-12.77 -42.96c-15.1,13.55 -29.8,25.35 -44.12,35.6 -14.32,10.26 -29.22,18.96 -44.69,25.93 -15.48,6.97 -31.93,12.19 -49.54,15.87 -17.6,3.67 -37.15,5.61 -58.43,5.61 -25.15,0 -48.37,-3.49 -69.66,-10.26 -21.28,-6.77 -39.66,-16.83 -55.14,-30.37 -15.48,-13.55 -27.47,-30.38 -35.99,-50.5 -8.51,-20.13 -12.77,-43.54 -12.77,-70.24 0,-15.09 2.52,-30.18 7.55,-45.08 5.03,-14.9 13.35,-29.03 24.76,-42.57 11.42,-13.54 26.13,-26.31 44.31,-38.31 18.19,-12 40.64,-22.44 67.14,-31.35 26.51,-8.9 57.28,-16.25 92.49,-21.86 35.21,-5.61 75.46,-8.9 120.74,-10.06l0 -34.83c0,-39.86 -8.52,-69.46 -25.54,-88.61 -17.03,-19.16 -41.6,-28.64 -73.72,-28.64 -23.22,0 -42.38,2.71 -57.66,8.13 -15.29,5.41 -28.83,11.41 -40.44,18.18 -11.61,6.78 -22.06,12.97 -31.54,18.38 -9.48,5.42 -20.12,8.13 -31.73,8.13 -10.06,0 -18.58,-2.71 -25.54,-7.93 -6.97,-5.23 -12.58,-11.22 -16.83,-18.19l-25.54 -45.86zm976.91 69.08c-16.25,-19.74 -33.86,-33.67 -53.01,-41.79 -19.16,-8.13 -39.86,-12.19 -61.92,-12.19 -21.67,0 -41.21,4.06 -58.63,12.19 -17.41,8.12 -32.31,20.31 -44.69,36.76 -12.38,16.44 -21.86,37.34 -28.44,62.69 -6.58,25.34 -9.87,55.33 -9.87,89.78 0,34.82 2.9,64.23 8.51,88.42 5.61,24.18 13.55,43.92 23.99,59.21 10.45,15.28 23.22,26.31 38.32,33.08 15.09,6.77 31.92,10.26 50.5,10.26 29.79,0 55.14,-6.19 76.04,-18.58 20.89,-12.38 40.63,-29.99 59.2,-52.82l0 -267.01zm143.38 -419.09l0 862.56 -87.65 0c-18.97,0 -30.96,-8.71 -35.99,-26.12l-12.19 -57.47c-23.99,27.48 -51.47,49.73 -82.62,66.76 -31.15,17.02 -67.53,25.54 -108.93,25.54 -32.51,0 -62.31,-6.78 -89.39,-20.32 -27.09,-13.54 -50.31,-33.28 -69.85,-59.01 -19.55,-25.74 -34.64,-57.47 -45.28,-95.39 -10.64,-37.92 -16.06,-81.27 -16.06,-130.02 0,-44.12 6,-85.14 18,-123.06 11.99,-37.93 29.21,-70.82 51.66,-98.68 22.44,-27.86 49.34,-49.73 80.68,-65.4 31.35,-15.67 66.56,-23.41 105.64,-23.41 33.28,0 61.73,5.22 85.33,15.67 23.61,10.45 44.7,24.57 63.27,42.38l0 -314.03 143.38 0zm-5317.59 1416.32l0 839.35 -80.1 0c-12.38,0 -22.64,-2.13 -30.96,-6.19 -8.32,-4.06 -16.44,-10.84 -24.18,-20.51l-438.25 -559.56c2.32,25.54 3.48,49.14 3.48,70.81l0 515.45 -137.57 0 0 -839.35 81.85 0c6.58,0 12.38,0.2 17.22,0.78 4.84,0.58 9.09,1.74 12.77,3.48 3.68,1.74 7.16,4.26 10.64,7.55 3.48,3.29 7.35,7.74 11.61,13.15l439.99 561.89c-1.16,-13.54 -2.13,-26.89 -2.9,-40.05 -0.78,-13.16 -1.16,-25.35 -1.16,-36.57l0 -510.23 137.56 0zm478.89 585.11c-41.41,1.93 -76.24,5.42 -104.49,10.64 -28.25,5.22 -50.88,12 -67.91,20.12 -17.03,8.13 -29.22,17.61 -36.57,28.45 -7.35,10.83 -11.03,22.63 -11.03,35.4 0,25.16 7.55,43.15 22.45,53.99 14.89,10.83 34.24,16.25 58.24,16.25 29.41,0 54.95,-5.42 76.42,-16.06 21.48,-10.64 42.38,-26.7 62.89,-48.37l0 -100.42zm-328.54 -258.31c68.49,-62.69 150.91,-94.03 247.27,-94.03 34.83,0 65.98,5.61 93.46,17.03 27.47,11.41 50.69,27.28 69.65,47.59 18.96,20.32 33.47,44.7 43.34,72.95 9.87,28.25 14.71,59.21 14.71,92.87l0 376.14 -65.02 0c-13.54,0 -23.99,-2.13 -31.34,-6.19 -7.35,-4.06 -13.16,-12.19 -17.41,-24.57l-12.77 -42.96c-15.1,13.55 -29.8,25.35 -44.12,35.6 -14.32,10.26 -29.22,18.96 -44.69,25.93 -15.48,6.97 -31.93,12.19 -49.54,15.87 -17.6,3.67 -37.15,5.61 -58.43,5.61 -25.15,0 -48.37,-3.49 -69.66,-10.26 -21.28,-6.77 -39.66,-16.83 -55.14,-30.37 -15.48,-13.55 -27.47,-30.38 -35.99,-50.5 -8.51,-20.13 -12.77,-43.54 -12.77,-70.24 0,-15.09 2.52,-30.18 7.55,-45.08 5.03,-14.9 13.35,-29.03 24.76,-42.57 11.42,-13.54 26.13,-26.31 44.31,-38.31 18.19,-12 40.64,-22.44 67.14,-31.35 26.51,-8.9 57.28,-16.25 92.49,-21.86 35.21,-5.61 75.46,-8.9 120.74,-10.06l0 -34.83c0,-39.86 -8.52,-69.46 -25.54,-88.61 -17.03,-19.16 -41.6,-28.64 -73.72,-28.64 -23.22,0 -42.38,2.71 -57.66,8.13 -15.29,5.41 -28.83,11.41 -40.44,18.18 -11.61,6.78 -22.06,12.97 -31.54,18.38 -9.48,5.42 -20.12,8.13 -31.73,8.13 -10.06,0 -18.58,-2.71 -25.54,-7.93 -6.97,-5.23 -12.58,-11.22 -16.83,-18.19l-25.54 -45.86zm1029.73 42.96c-4.25,5.42 -8.32,9.67 -12.38,12.77 -4.06,3.09 -10.06,4.64 -17.8,4.64 -7.35,0 -14.51,-2.32 -21.48,-6.77 -6.96,-4.45 -15.28,-9.48 -24.96,-15.09 -9.67,-5.61 -21.09,-10.64 -34.44,-15.09 -13.35,-4.45 -29.99,-6.58 -49.72,-6.58 -25.16,0 -47.21,4.45 -66.18,13.54 -18.96,9.1 -34.63,22.25 -47.21,39.28 -12.57,17.03 -22.05,37.54 -28.25,61.72 -6.19,24.19 -9.28,51.66 -9.28,82.23 0,31.73 3.48,59.98 10.25,84.75 6.77,24.77 16.45,45.47 29.22,62.3 12.77,16.84 28.25,29.61 46.44,38.31 18.18,8.71 38.69,13.16 61.52,13.16 22.84,0 41.41,-2.9 55.53,-8.51 14.13,-5.61 25.93,-11.81 35.61,-18.58 9.67,-6.77 18.18,-12.96 25.34,-18.57 7.16,-5.61 15.09,-8.32 24,-8.32 11.6,0 20.31,4.45 26.12,13.35l41.21 52.24c-15.87,18.57 -33.09,34.05 -51.66,46.63 -18.58,12.58 -37.73,22.64 -57.66,30.18 -19.93,7.55 -40.44,12.97 -61.53,16.06 -21.09,3.1 -42.18,4.65 -63.08,4.65 -36.76,0 -71.39,-6.97 -103.9,-20.71 -32.5,-13.73 -60.95,-33.66 -85.33,-59.98 -24.38,-26.31 -43.53,-58.62 -57.66,-96.74 -14.12,-38.12 -21.28,-81.46 -21.28,-130.22 0,-43.72 6.39,-84.36 18.96,-121.7 12.58,-37.34 30.96,-69.66 55.34,-96.94 24.38,-27.28 54.56,-48.56 90.55,-64.04 35.99,-15.48 77.4,-23.22 124.22,-23.22 44.5,0 83.59,7.16 117.06,21.48 33.47,14.32 63.46,34.83 90.16,61.53l-37.73 52.24zm281.52 -125.96l0 595.55 -143.95 0 0 -595.55 143.95 0zm19.74 -173.56c0,12.38 -2.52,23.99 -7.55,34.83 -5.03,10.83 -11.61,20.31 -19.93,28.44 -8.32,8.13 -18.18,14.51 -29.41,19.35 -11.22,4.84 -23.21,7.35 -35.98,7.35 -12.39,0 -24,-2.51 -35.03,-7.35 -11.02,-4.84 -20.7,-11.22 -28.82,-19.35 -8.13,-8.13 -14.52,-17.61 -19.35,-28.44 -4.84,-10.84 -7.36,-22.45 -7.36,-34.83 0,-12.77 2.52,-24.77 7.36,-35.99 4.83,-11.22 11.22,-20.89 19.35,-29.02 8.12,-8.13 17.8,-14.71 28.82,-19.54 11.03,-4.84 22.64,-7.16 35.03,-7.16 12.77,0 24.76,2.32 35.98,7.16 11.23,4.83 21.09,11.41 29.41,19.54 8.32,8.13 14.9,17.8 19.93,29.02 5.03,11.22 7.55,23.22 7.55,35.99zm390.06 164.27c44.12,0 84.37,7.16 120.55,21.48 36.18,14.32 67.14,34.63 92.87,60.95 25.73,26.31 45.47,58.43 59.4,96.35 13.93,37.93 20.9,80.3 20.9,127.12 0,47.21 -6.97,89.78 -20.9,127.7 -13.93,37.93 -33.67,70.24 -59.4,96.94 -25.73,26.7 -56.69,47.21 -92.87,61.53 -36.18,14.32 -76.43,21.48 -120.55,21.48 -44.5,0 -84.94,-7.16 -121.31,-21.48 -36.38,-14.32 -67.33,-34.83 -93.07,-61.53 -25.73,-26.7 -45.66,-59.01 -59.79,-96.94 -14.12,-37.92 -21.28,-80.49 -21.28,-127.7 0,-46.82 7.16,-89.19 21.28,-127.12 14.13,-37.92 34.06,-70.04 59.79,-96.35 25.74,-26.32 56.69,-46.63 93.07,-60.95 36.37,-14.32 76.81,-21.48 121.31,-21.48zm0 503.26c49.54,0 86.3,-16.64 110.1,-49.92 23.8,-33.28 35.6,-82.04 35.6,-146.28 0,-64.23 -11.8,-113.19 -35.6,-146.85 -23.8,-33.67 -60.56,-50.5 -110.1,-50.5 -50.3,0 -87.45,16.83 -111.64,50.69 -24.18,33.86 -36.37,82.81 -36.37,146.66 0,63.85 12.19,112.42 36.37,145.89 24.19,33.48 61.34,50.31 111.64,50.31zm537.51 -420.83c12,-12 24.77,-23.22 38.12,-33.48 13.35,-10.25 27.47,-18.96 42.37,-26.12 14.9,-7.16 30.77,-12.77 47.79,-16.83 17.03,-4.06 35.61,-6 55.73,-6 32.5,0 61.33,5.42 86.49,16.45 25.15,11.03 46.24,26.5 63.07,46.43 16.84,19.93 29.61,43.73 38.31,71.4 8.71,27.67 12.97,58.24 12.97,91.52l0 379.04 -143.38 0 0 -379.04c0,-36.38 -8.32,-64.62 -24.96,-84.55 -16.64,-19.93 -41.98,-29.8 -76.04,-29.8 -24.76,0 -47.98,5.61 -69.65,16.83 -21.67,11.22 -42.18,26.51 -61.53,45.86l0 430.7 -143.37 0 0 -595.55 87.65 0c18.57,0 30.76,8.7 36.56,26.12l9.87 47.02zm835.29 268.17c-41.41,1.93 -76.24,5.42 -104.49,10.64 -28.25,5.22 -50.88,12 -67.91,20.12 -17.03,8.13 -29.22,17.61 -36.57,28.45 -7.35,10.83 -11.03,22.63 -11.03,35.4 0,25.16 7.55,43.15 22.45,53.99 14.89,10.83 34.24,16.25 58.24,16.25 29.41,0 54.95,-5.42 76.42,-16.06 21.48,-10.64 42.38,-26.7 62.89,-48.37l0 -100.42zm-328.54 -258.31c68.49,-62.69 150.91,-94.03 247.27,-94.03 34.83,0 65.98,5.61 93.46,17.03 27.47,11.41 50.69,27.28 69.65,47.59 18.96,20.32 33.47,44.7 43.34,72.95 9.87,28.25 14.71,59.21 14.71,92.87l0 376.14 -65.02 0c-13.54,0 -23.99,-2.13 -31.34,-6.19 -7.35,-4.06 -13.16,-12.19 -17.41,-24.57l-12.77 -42.96c-15.1,13.55 -29.8,25.35 -44.12,35.6 -14.32,10.26 -29.22,18.96 -44.69,25.93 -15.48,6.97 -31.93,12.19 -49.54,15.87 -17.6,3.67 -37.15,5.61 -58.43,5.61 -25.15,0 -48.37,-3.49 -69.66,-10.26 -21.28,-6.77 -39.66,-16.83 -55.14,-30.37 -15.48,-13.55 -27.47,-30.38 -35.99,-50.5 -8.51,-20.13 -12.77,-43.54 -12.77,-70.24 0,-15.09 2.52,-30.18 7.55,-45.08 5.03,-14.9 13.35,-29.03 24.76,-42.57 11.42,-13.54 26.13,-26.31 44.31,-38.31 18.19,-12 40.64,-22.44 67.14,-31.35 26.51,-8.9 57.28,-16.25 92.49,-21.86 35.21,-5.61 75.46,-8.9 120.74,-10.06l0 -34.83c0,-39.86 -8.52,-69.46 -25.54,-88.61 -17.03,-19.16 -41.6,-28.64 -73.72,-28.64 -23.22,0 -42.38,2.71 -57.66,8.13 -15.29,5.41 -28.83,11.41 -40.44,18.18 -11.61,6.78 -22.06,12.97 -31.54,18.38 -9.48,5.42 -20.12,8.13 -31.73,8.13 -10.06,0 -18.58,-2.71 -25.54,-7.93 -6.97,-5.23 -12.58,-11.22 -16.83,-18.19l-25.54 -45.86zm748.21 -350.01l0 862.56 -143.37 0 0 -862.56 143.37 0zm-4020.27 1812.2c-16.25,-19.74 -33.86,-33.67 -53.01,-41.79 -19.16,-8.13 -39.86,-12.19 -61.92,-12.19 -21.67,0 -41.21,4.06 -58.63,12.19 -17.41,8.12 -32.31,20.31 -44.69,36.76 -12.38,16.44 -21.86,37.34 -28.44,62.69 -6.58,25.34 -9.87,55.33 -9.87,89.78 0,34.82 2.9,64.23 8.51,88.42 5.61,24.18 13.55,43.92 23.99,59.21 10.45,15.28 23.22,26.31 38.32,33.08 15.09,6.77 31.92,10.26 50.5,10.26 29.79,0 55.14,-6.19 76.04,-18.58 20.89,-12.38 40.63,-29.99 59.2,-52.82l0 -267.01zm143.38 -419.09l0 862.56 -87.65 0c-18.97,0 -30.96,-8.71 -35.99,-26.12l-12.19 -57.47c-23.99,27.48 -51.47,49.73 -82.62,66.76 -31.15,17.02 -67.53,25.54 -108.93,25.54 -32.51,0 -62.31,-6.78 -89.39,-20.32 -27.09,-13.54 -50.31,-33.28 -69.85,-59.01 -19.55,-25.74 -34.64,-57.47 -45.28,-95.39 -10.64,-37.92 -16.06,-81.27 -16.06,-130.02 0,-44.12 6,-85.14 18,-123.06 11.99,-37.93 29.21,-70.82 51.66,-98.68 22.44,-27.86 49.34,-49.73 80.68,-65.4 31.35,-15.67 66.56,-23.41 105.64,-23.41 33.28,0 61.73,5.22 85.33,15.67 23.61,10.45 44.7,24.57 63.27,42.38l0 -314.03 143.38 0zm525.31 496.29c0,-18.57 -2.52,-36.18 -7.74,-52.63 -5.22,-16.45 -13.16,-30.76 -23.6,-43.15 -10.45,-12.38 -23.61,-22.25 -39.67,-29.41 -16.06,-7.16 -34.83,-10.64 -56.11,-10.64 -41.41,0 -73.91,11.8 -97.71,35.41 -23.8,23.61 -39.09,57.08 -45.66,100.42l270.49 0zm-273.4 86.49c2.33,30.57 7.74,56.88 16.26,79.13 8.51,22.26 19.73,40.64 33.66,55.15 13.93,14.51 30.57,25.34 49.73,32.5 19.15,7.16 40.24,10.84 63.46,10.84 23.22,0 43.34,-2.71 60.18,-8.13 16.83,-5.42 31.54,-11.41 44.11,-17.99 12.58,-6.58 23.61,-12.58 33.09,-18 9.48,-5.41 18.57,-8.12 27.47,-8.12 12,0 20.9,4.45 26.7,13.35l41.22 52.24c-15.87,18.57 -33.67,34.05 -53.41,46.63 -19.73,12.58 -40.24,22.64 -61.72,30.18 -21.47,7.55 -43.34,12.97 -65.59,16.06 -22.25,3.1 -43.92,4.65 -64.82,4.65 -41.4,0 -79.91,-6.97 -115.51,-20.71 -35.6,-13.73 -66.56,-34.05 -92.87,-60.94 -26.32,-26.9 -47.02,-60.18 -62.11,-99.84 -15.09,-39.67 -22.64,-85.52 -22.64,-137.77 0,-40.63 6.58,-78.94 19.74,-114.73 13.15,-35.8 32.11,-66.95 56.69,-93.46 24.57,-26.51 54.56,-47.4 89.97,-62.88 35.41,-15.48 75.27,-23.22 119.77,-23.22 37.53,0 72.17,6 103.9,17.99 31.73,12 59.01,29.41 81.84,52.44 22.84,23.02 40.83,51.27 53.79,84.75 12.97,33.47 19.35,71.78 19.35,114.73 0,21.68 -2.32,36.19 -6.96,43.73 -4.65,7.55 -13.55,11.42 -26.7,11.42l-368.6 0zm1068.05 -160.21c29.41,0 55.14,-3.67 77,-11.03 21.87,-7.35 39.86,-17.6 53.99,-30.57 14.12,-12.96 24.57,-28.25 31.53,-46.05 6.97,-17.8 10.45,-37.34 10.45,-58.62 0,-42.57 -13.93,-75.27 -41.98,-98.1 -28.06,-22.83 -71.01,-34.25 -128.67,-34.25l-99.84 0 0 278.62 97.52 0zm401.67 439.99l-141.05 0c-26.7,0 -46.05,-10.45 -58.04,-31.34l-176.46 -268.76c-6.58,-10.06 -13.74,-17.22 -21.67,-21.47 -7.94,-4.26 -19.74,-6.39 -35.22,-6.39l-66.75 0 0 327.96 -156.15 0 0 -839.35 255.99 0c56.88,0 105.83,5.81 146.66,17.61 40.83,11.8 74.3,28.44 100.42,49.73 26.12,21.28 45.28,46.63 57.66,76.23 12.38,29.61 18.57,62.3 18.57,97.91 0,28.25 -4.06,54.95 -12.38,80.1 -8.32,25.15 -20.32,47.98 -35.99,68.49 -15.67,20.51 -35.02,38.51 -58.04,53.99 -23.03,15.48 -49.34,27.67 -78.75,36.57 10.06,5.8 19.35,12.57 27.86,20.51 8.51,7.93 16.25,17.41 23.22,28.24l210.12 309.97z"/>
  <path class="fil0" d="M10655.02 5662.46c44.12,0 84.37,7.16 120.55,21.48 36.18,14.32 67.14,34.63 92.87,60.95 25.73,26.31 45.47,58.43 59.4,96.35 13.93,37.93 20.9,80.3 20.9,127.12 0,47.21 -6.97,89.78 -20.9,127.7 -13.93,37.93 -33.67,70.24 -59.4,96.94 -25.73,26.7 -56.69,47.21 -92.87,61.53 -36.18,14.32 -76.43,21.48 -120.55,21.48 -44.5,0 -84.94,-7.16 -121.31,-21.48 -36.38,-14.32 -67.33,-34.83 -93.07,-61.53 -25.73,-26.7 -45.66,-59.01 -59.79,-96.94 -14.12,-37.92 -21.28,-80.49 -21.28,-127.7 0,-46.82 7.16,-89.19 21.28,-127.12 14.13,-37.92 34.06,-70.04 59.79,-96.35 25.74,-26.32 56.69,-46.63 93.07,-60.95 36.37,-14.32 76.81,-21.48 121.31,-21.48zm0 503.26c49.54,0 86.3,-16.64 110.1,-49.92 23.8,-33.28 35.6,-82.04 35.6,-146.28 0,-64.23 -11.8,-113.19 -35.6,-146.85 -23.8,-33.67 -60.56,-50.5 -110.1,-50.5 -50.3,0 -87.45,16.83 -111.64,50.69 -24.18,33.86 -36.37,82.81 -36.37,146.66 0,63.85 12.19,112.42 36.37,145.89 24.19,33.48 61.34,50.31 111.64,50.31zm766.79 -377.88c-3.87,6.19 -7.93,10.45 -12.19,12.96 -4.25,2.52 -9.67,3.87 -16.25,3.87 -6.96,0 -14.32,-1.93 -22.25,-5.8 -7.93,-3.87 -17.22,-8.32 -27.67,-13.16 -10.45,-4.84 -22.25,-9.09 -35.6,-12.96 -13.35,-3.87 -29.22,-5.81 -47.4,-5.81 -28.25,0 -50.31,6 -66.37,18 -16.06,11.99 -24.19,27.67 -24.19,47.01 0,12.78 4.26,23.42 12.58,32.12 8.32,8.71 19.35,16.45 33.09,23.03 13.73,6.58 29.21,12.38 46.63,17.61 17.41,5.22 35.21,11.02 53.21,17.22 17.99,6.19 35.6,13.15 53.01,21.09 17.42,7.93 33.09,17.99 46.83,30.18 13.73,12.19 24.76,26.89 33.08,43.92 8.32,17.03 12.38,37.54 12.38,61.53 0,28.64 -5.03,54.95 -15.28,79.14 -10.26,24.18 -25.54,45.08 -45.66,62.69 -20.13,17.6 -44.89,31.34 -74.5,41.21 -29.6,9.87 -63.85,14.9 -102.54,14.9 -20.51,0 -40.44,-1.94 -59.98,-5.61 -19.55,-3.68 -38.31,-8.71 -56.31,-15.29 -17.99,-6.58 -34.63,-14.32 -49.92,-23.22 -15.28,-8.9 -28.83,-18.57 -40.44,-29.02l33.09 -54.56c4.26,-6.58 9.29,-11.61 15.09,-15.1 5.81,-3.48 13.16,-5.22 22.06,-5.22 8.9,0 17.41,2.52 25.34,7.55 7.94,5.03 17.03,10.44 27.48,16.25 10.45,5.8 22.83,11.22 36.96,16.25 14.12,5.03 31.92,7.55 53.59,7.55 17.03,0 31.73,-2.13 43.92,-6.19 12.19,-4.07 22.25,-9.29 30.19,-15.87 7.93,-6.58 13.73,-14.32 17.41,-23.02 3.68,-8.71 5.42,-17.61 5.42,-26.9 0,-13.93 -4.06,-25.35 -12.38,-34.25 -8.32,-8.9 -19.35,-16.64 -33.09,-23.21 -13.74,-6.58 -29.41,-12.58 -47.02,-17.81 -17.61,-5.22 -35.6,-10.83 -53.98,-17.02 -18.38,-6.19 -36.38,-13.55 -53.98,-21.87 -17.61,-8.32 -33.28,-18.76 -47.02,-31.53 -13.74,-12.77 -24.77,-28.45 -33.09,-47.02 -8.32,-18.58 -12.57,-41.02 -12.57,-67.34 0,-24.37 4.83,-47.59 14.51,-69.65 9.67,-22.06 23.99,-41.41 42.76,-57.85 18.77,-16.45 42.18,-29.61 70.23,-39.47 28.06,-9.87 60.37,-14.71 97.13,-14.71 41.02,0 78.37,6.77 112.03,20.32 33.67,13.54 61.73,31.34 84.17,53.4l-32.51 51.66zm461.47 225.22c-41.41,1.93 -76.24,5.42 -104.49,10.64 -28.25,5.22 -50.88,12 -67.91,20.12 -17.03,8.13 -29.22,17.61 -36.57,28.45 -7.35,10.83 -11.03,22.63 -11.03,35.4 0,25.16 7.55,43.15 22.45,53.99 14.89,10.83 34.24,16.25 58.24,16.25 29.41,0 54.95,-5.42 76.42,-16.06 21.48,-10.64 42.38,-26.7 62.89,-48.37l0 -100.42zm-328.54 -258.31c68.49,-62.69 150.91,-94.03 247.27,-94.03 34.83,0 65.98,5.61 93.46,17.03 27.47,11.41 50.69,27.28 69.65,47.59 18.96,20.32 33.47,44.7 43.34,72.95 9.87,28.25 14.71,59.21 14.71,92.87l0 376.14 -65.02 0c-13.54,0 -23.99,-2.13 -31.34,-6.19 -7.35,-4.06 -13.16,-12.19 -17.41,-24.57l-12.77 -42.96c-15.1,13.55 -29.8,25.35 -44.12,35.6 -14.32,10.26 -29.22,18.96 -44.69,25.93 -15.48,6.97 -31.93,12.19 -49.54,15.87 -17.6,3.67 -37.15,5.61 -58.43,5.61 -25.15,0 -48.37,-3.49 -69.66,-10.26 -21.28,-6.77 -39.66,-16.83 -55.14,-30.37 -15.48,-13.55 -27.47,-30.38 -35.99,-50.5 -8.51,-20.13 -12.77,-43.54 -12.77,-70.24 0,-15.09 2.52,-30.18 7.55,-45.08 5.03,-14.9 13.35,-29.03 24.76,-42.57 11.42,-13.54 26.13,-26.31 44.31,-38.31 18.19,-12 40.64,-22.44 67.14,-31.35 26.51,-8.9 57.28,-16.25 92.49,-21.86 35.21,-5.61 75.46,-8.9 120.74,-10.06l0 -34.83c0,-39.86 -8.52,-69.46 -25.54,-88.61 -17.03,-19.16 -41.6,-28.64 -73.72,-28.64 -23.22,0 -42.38,2.71 -57.66,8.13 -15.29,5.41 -28.83,11.41 -40.44,18.18 -11.61,6.78 -22.06,12.97 -31.54,18.38 -9.48,5.42 -20.12,8.13 -31.73,8.13 -10.06,0 -18.58,-2.71 -25.54,-7.93 -6.97,-5.23 -12.58,-11.22 -16.83,-18.19l-25.54 -45.86zm738.34 20.32c18.58,-35.6 40.64,-63.66 66.18,-83.97 25.54,-20.32 55.72,-30.38 90.55,-30.38 27.47,0 49.53,6 66.17,17.99l-9.29 107.39c-1.93,6.96 -4.64,11.8 -8.32,14.7 -3.67,2.91 -8.7,4.45 -14.9,4.45 -5.8,0 -14.31,-0.96 -25.73,-2.9 -11.42,-1.93 -22.64,-2.9 -33.47,-2.9 -15.87,0 -29.99,2.32 -42.38,6.96 -12.38,4.65 -23.41,11.23 -33.28,19.93 -9.86,8.71 -18.57,19.35 -26.12,31.74 -7.54,12.38 -14.7,26.5 -21.28,42.37l0 366.85 -143.37 0 0 -595.55 84.16 0c14.71,0 24.96,2.51 30.77,7.74 5.8,5.22 9.67,14.7 11.61,28.25l8.7 67.33zm446.37 -103.32l0 595.55 -143.95 0 0 -595.55 143.95 0zm19.74 -173.56c0,12.38 -2.52,23.99 -7.55,34.83 -5.03,10.83 -11.61,20.31 -19.93,28.44 -8.32,8.13 -18.18,14.51 -29.41,19.35 -11.22,4.84 -23.21,7.35 -35.98,7.35 -12.39,0 -24,-2.51 -35.03,-7.35 -11.02,-4.84 -20.7,-11.22 -28.82,-19.35 -8.13,-8.13 -14.52,-17.61 -19.35,-28.44 -4.84,-10.84 -7.36,-22.45 -7.36,-34.83 0,-12.77 2.52,-24.77 7.36,-35.99 4.83,-11.22 11.22,-20.89 19.35,-29.02 8.12,-8.13 17.8,-14.71 28.82,-19.54 11.03,-4.84 22.64,-7.16 35.03,-7.16 12.77,0 24.76,2.32 35.98,7.16 11.23,4.83 21.09,11.41 29.41,19.54 8.32,8.13 14.9,17.8 19.93,29.02 5.03,11.22 7.55,23.22 7.55,35.99zm390.06 164.27c44.12,0 84.37,7.16 120.55,21.48 36.18,14.32 67.14,34.63 92.87,60.95 25.73,26.31 45.47,58.43 59.4,96.35 13.93,37.93 20.9,80.3 20.9,127.12 0,47.21 -6.97,89.78 -20.9,127.7 -13.93,37.93 -33.67,70.24 -59.4,96.94 -25.73,26.7 -56.69,47.21 -92.87,61.53 -36.18,14.32 -76.43,21.48 -120.55,21.48 -44.5,0 -84.94,-7.16 -121.31,-21.48 -36.38,-14.32 -67.33,-34.83 -93.07,-61.53 -25.73,-26.7 -45.66,-59.01 -59.79,-96.94 -14.12,-37.92 -21.28,-80.49 -21.28,-127.7 0,-46.82 7.16,-89.19 21.28,-127.12 14.13,-37.92 34.06,-70.04 59.79,-96.35 25.74,-26.32 56.69,-46.63 93.07,-60.95 36.37,-14.32 76.81,-21.48 121.31,-21.48zm0 503.26c49.54,0 86.3,-16.64 110.1,-49.92 23.8,-33.28 35.6,-82.04 35.6,-146.28 0,-64.23 -11.8,-113.19 -35.6,-146.85 -23.8,-33.67 -60.56,-50.5 -110.1,-50.5 -50.3,0 -87.45,16.83 -111.64,50.69 -24.18,33.86 -36.37,82.81 -36.37,146.66 0,63.85 12.19,112.42 36.37,145.89 24.19,33.48 61.34,50.31 111.64,50.31z"/>
  <polygon class="fil1" points="0.02,7073.28 7073.29,7073.28 7073.29,0.02 0.02,0.02 "/>
  <path class="fil2" d="M1910.1 5971.43c48.99,0 92.94,-8.28 131.49,-24.49 38.55,-16.21 70.97,-39.27 97.63,-69.53 26.66,-30.26 47.19,-67.37 61.24,-110.96 14.05,-43.59 20.9,-92.95 20.9,-148.43l0 -932.7 365.3 0 0 932.7c0,96.55 -15.49,185.17 -46.83,265.87 -31.35,80.7 -76.38,150.23 -134.74,208.59 -58.36,58.36 -129.33,103.75 -212.91,136.18 -83.58,32.42 -177.61,48.63 -282.08,48.63 -105.2,0 -199.59,-16.21 -283.17,-48.63 -83.57,-32.43 -154.55,-77.82 -212.91,-136.18 -58.36,-58.36 -103.03,-127.89 -134.01,-208.59 -30.98,-80.7 -46.48,-169.32 -46.48,-265.87l0 -932.7 365.3 0 0 931.62c0,55.48 7.21,104.84 21.26,148.43 14.05,43.59 34.22,80.7 60.88,111.32 26.66,30.62 59.45,54.04 97.99,70.25 38.55,16.21 82.14,24.49 131.14,24.49zm2336.62 -1286.11l0 1574.68 -190.22 0c-28.1,0 -51.51,-4.68 -70.61,-13.69 -19.09,-9.01 -38.19,-24.5 -56.92,-46.83l-742.49 -939.19c2.88,28.1 5.05,55.12 6.13,81.42 1.08,26.29 1.44,51.15 1.44,74.21l0 844.08 -322.07 0 0 -1574.68 192.38 0c15.85,0 29.18,0.72 39.98,2.16 10.81,1.44 20.54,3.96 29.18,7.93 8.65,3.96 16.94,9.72 24.86,16.93 7.93,7.2 16.93,16.93 27.02,29.18l748.98 945.67c-3.61,-30.26 -6.13,-59.8 -7.57,-88.26 -1.44,-28.46 -2.16,-55.12 -2.16,-80.34l0 -833.27 322.07 0zm817.06 740.33c49.72,0 92.23,-6.49 127.17,-19.1 34.95,-12.61 63.41,-29.9 85.75,-52.24 22.33,-22.33 38.54,-48.63 48.63,-78.53 10.09,-29.9 15.13,-61.97 15.13,-96.55 0,-69.17 -22.34,-123.21 -67.37,-162.12 -45.03,-38.9 -114.92,-58.36 -209.31,-58.36l-146.98 0 0 466.9 146.98 0zm776 834.35l-330.72 0c-61.24,0 -105.19,-23.06 -131.85,-69.17l-261.55 -457.16c-12.25,-19.46 -25.94,-33.87 -41.07,-42.88 -15.13,-9 -36.74,-13.33 -64.84,-13.33l-92.95 0 0 582.54 -365.3 0 0 -1574.68 512.28 0c113.84,0 211.11,11.53 291.45,34.94 80.34,23.42 145.91,56.2 196.7,97.99 50.8,41.79 87.54,91.15 110.6,148.07 23.06,56.92 34.58,118.88 34.58,185.89 0,51.16 -6.84,99.43 -20.53,144.82 -13.69,45.4 -33.86,87.19 -60.52,125.73 -26.66,38.55 -59.45,73.14 -98.71,103.4 -39.27,30.26 -84.66,55.12 -135.82,74.57 23.78,12.25 46.11,27.38 67.01,45.75 20.89,18.38 39.63,40.35 56.2,65.57l335.04 547.95z"/>
 </g>
</svg>
